<mxfile host="app.diagrams.net" agent="Mozilla/5.0 (iPad; CPU OS 26_0_0 like Mac OS X) AppleWebKit/605.1.15 (KHTML, like Gecko) CriOS/140.0.7339.101 Mobile/15E148 Safari/604.1" version="28.2.1">
  <diagram name="페이지-1" id="-X64Nkwu2qsNUVG8sjkc">
    <mxGraphModel dx="1096" dy="944" grid="1" gridSize="10" guides="1" tooltips="1" connect="1" arrows="1" fold="1" page="1" pageScale="1" pageWidth="827" pageHeight="1169" math="0" shadow="0">
      <root>
        <mxCell id="0" />
        <mxCell id="1" parent="0" />
        <mxCell id="c9_irz3FM_Jrglkc2sch-1" value="" style="ellipse;whiteSpace=wrap;html=1;" parent="1" vertex="1">
          <mxGeometry x="340" y="180" width="120" height="80" as="geometry" />
        </mxCell>
        <mxCell id="c9_irz3FM_Jrglkc2sch-2" value="" style="shape=process;whiteSpace=wrap;html=1;backgroundOutline=1;size=0.25;" parent="1" vertex="1">
          <mxGeometry x="280" y="510" width="120" height="60" as="geometry" />
        </mxCell>
      </root>
    </mxGraphModel>
  </diagram>
</mxfile>
